<?xml version="1.0" standalone="no"?>
<!DOCTYPE svg PUBLIC "-//W3C//DTD SVG 20010904//EN"
 "http://www.w3.org/TR/2001/REC-SVG-20010904/DTD/svg10.dtd">
<svg version="1.0" xmlns="http://www.w3.org/2000/svg"
 width="581.000000pt" height="581.000000pt" viewBox="0 0 581.000000 581.000000"
 preserveAspectRatio="xMidYMid meet">
<metadata>
Created by potrace 1.11, written by Peter Selinger 2001-2013
</metadata>
<g transform="translate(0.000000,581.000000) scale(0.100000,-0.100000)"
fill="#000000" stroke="none">
<path d="M4084 5689 c-149 -38 -276 -103 -433 -222 -145 -110 -363 -330 -481
-486 -14 -18 -38 -50 -55 -71 -16 -20 -37 -48 -45 -60 -8 -12 -22 -32 -31 -44
-42 -55 -149 -219 -154 -237 -10 -31 -28 -22 -70 37 -22 31 -48 66 -59 78 -10
11 -30 37 -45 56 -14 19 -28 37 -31 40 -3 3 -25 30 -50 60 -71 87 -99 117
-206 224 -128 128 -147 145 -274 239 -58 43 -109 81 -115 85 -25 19 -208 118
-235 127 -3 1 -16 6 -30 12 -36 15 -122 44 -143 48 -10 3 -26 6 -35 9 -55 17
-240 30 -268 19 -9 -3 -12 -13 -9 -23 39 -123 4 -270 -83 -353 -16 -15 -56
-39 -88 -52 -48 -20 -72 -23 -134 -20 -77 4 -113 14 -187 53 l-42 22 -15 -53
c-41 -145 -39 -280 10 -477 41 -163 127 -366 236 -553 40 -70 187 -297 198
-307 3 -3 33 -41 65 -85 33 -44 64 -83 70 -87 10 -8 -24 -86 -35 -80 -3 2 -17
-1 -33 -7 -26 -10 -59 -18 -102 -26 -11 -2 -63 -17 -115 -33 -433 -137 -733
-318 -917 -552 -54 -70 -126 -197 -118 -210 3 -4 21 -11 40 -14 45 -9 124 -50
161 -84 104 -96 130 -232 69 -358 -27 -56 -95 -131 -144 -160 -17 -10 -31 -22
-31 -27 0 -25 170 -149 241 -176 19 -7 43 -17 54 -22 30 -13 107 -37 135 -43
14 -2 32 -7 40 -10 8 -2 34 -7 58 -10 24 -3 46 -7 50 -10 39 -24 591 -25 682
-1 8 2 42 7 75 10 62 6 215 31 305 50 14 3 38 8 53 10 16 3 34 7 40 8 7 1 11
-2 10 -8 -6 -42 -16 -306 -16 -420 0 -136 9 -317 18 -359 2 -12 7 -41 10 -66
13 -108 54 -279 89 -375 5 -11 13 -33 18 -50 22 -64 78 -175 124 -246 44 -69
191 -229 210 -229 5 0 22 20 38 45 127 201 349 236 501 79 41 -42 104 -144 90
-144 -4 0 2 -13 11 -29 l17 -29 56 38 c136 93 227 208 320 403 66 137 158 428
176 557 4 29 13 84 20 120 2 14 7 48 10 75 7 67 16 135 20 162 4 28 18 248 19
326 2 54 4 59 34 77 l33 20 192 -84 c239 -104 396 -161 552 -200 105 -26 266
-56 275 -51 5 3 11 2 13 -2 6 -10 100 -16 242 -16 99 0 159 4 250 18 79 11
259 80 309 118 18 13 17 16 -17 61 -60 77 -79 130 -80 221 -1 87 14 130 69
195 57 67 163 112 270 114 35 0 65 3 66 6 5 17 -17 109 -39 162 -55 137 -155
275 -287 397 -22 20 -51 47 -65 60 -65 60 -384 281 -406 281 -3 0 -24 12 -46
26 -60 38 -305 158 -406 200 -48 20 -101 42 -118 49 -16 7 -46 19 -66 26 -31
10 -38 19 -54 64 l-17 52 90 134 c125 187 155 235 222 362 53 100 124 256 145
317 1 3 4 12 8 20 39 97 90 311 102 420 6 59 7 239 2 265 -6 26 -21 108 -21
117 -1 3 -4 10 -8 14 -5 4 -8 17 -8 29 0 11 -5 26 -12 33 -7 7 -8 12 -4 12 5
0 3 7 -4 15 -11 13 -16 12 -41 -6 -16 -11 -29 -17 -29 -13 0 3 -6 2 -12 -3
-28 -22 -107 -40 -169 -38 -124 3 -225 75 -270 194 -23 62 -29 194 -10 244
l11 28 -69 -2 c-38 -1 -100 -10 -137 -20z"/>
</g>
</svg>
